<?xml version="1.0" encoding="utf-8"?>
<!-- Svg Vector Icons : http://www.onlinewebfonts.com/icon -->
<!DOCTYPE svg PUBLIC "-//W3C//DTD SVG 1.1//EN" "http://www.w3.org/Graphics/SVG/1.1/DTD/svg11.dtd">
<svg version="1.1" xmlns="http://www.w3.org/2000/svg" xmlns:xlink="http://www.w3.org/1999/xlink" x="0px" y="0px" viewBox="0 0 1000 1000" enable-background="new 0 0 1000 1000" xml:space="preserve">
<metadata> Svg Vector Icons : http://www.onlinewebfonts.com/icon </metadata>
<g><g transform="translate(0.000000,511.000000) scale(0.100000,-0.100000)"><path d="M5038.3,4949.3c-137.8-63.8-280.7-206.7-334.3-336.9c-30.6-68.9-58.7-89.3-204.2-137.8c-352.2-112.3-625.3-285.9-893.3-564c-250.1-262.9-474.7-610-602.3-931.6c-35.7-89.3-51-104.6-102.1-94.4c-91.9,17.9-173.5-63.8-191.4-191.4l-15.3-109.8l234.8-219.5l234.8-216.9l-68.9-89.3c-155.7-204.2-206.7-510.4-122.5-755.4c48.5-142.9,211.8-334.3,342-400.7c81.7-40.8,104.6-74,140.4-183.8c301.2-918.8,770.8-1630.9,1197-1819.7c357.3-158.2,992.8-150.6,1334.8,15.3c410.9,199.1,849.9,870.3,1140.8,1750.8c53.6,163.3,81.7,209.3,125,222c99.6,23,268,191.4,336.9,334.3c135.3,275.6,104.6,610-76.6,821.8c-48.5,58.7-89.3,109.7-89.3,117.4c0,5.1,109.7,99.5,242.5,209.3c255.2,206.7,270.5,232.3,214.4,387.9c-17.9,53.6-53.6,89.3-122.5,114.8c-89.3,35.7-114.9,68.9-234.8,303.7c-219.5,428.8-543.6,814.2-878,1043.8c-140.4,97-441.5,239.9-587,278.2c-86.8,23-109.7,43.4-137.8,120c-17.9,53.6-84.2,142.9-145.4,204.2C5579.4,5013.1,5283.3,5064.1,5038.3,4949.3z M5467.1,4551.1c38.3-30.6,79.1-97,94.4-148c12.8-53.6,25.5-365,25.5-699.3v-607.4h191.4h191.4V3594c0,405.8,7.6,497.7,35.7,497.7c17.8,0,127.6-45.9,239.9-102.1c255.2-127.6,564.1-410.9,742.7-678.9c125-186.3,377.7-666.1,357.3-684c-5.1-2.6-168.5-135.3-359.9-291L6636,2049.9H5252.7H3869.4L3581,2320.5c-160.8,148-290.9,285.8-290.9,303.7c0,15.3,74,178.7,165.9,362.4c181.2,365,365,604.9,612.5,806.5c142.9,114.9,477.3,298.6,546.2,298.6c20.4,0,28.1-140.4,28.1-497.7v-497.7h204.2H5051v625.3c0,673.8,12.8,755.5,130.1,839.7C5262.9,4617.5,5387.9,4612.4,5467.1,4551.1z M7166.8,1804.9c102.1-130.2,99.5-362.4-5.1-484.9c-35.7-38.3-107.2-79.1-181.2-97l-122.5-30.6l-122.5-372.6C6605.4,424.2,6385.8-60.7,6248-262.4c-125.1-183.7-354.8-416-469.6-477.2c-84.2-46-158.2-56.2-421.1-63.8c-183.8-5.1-365,2.6-423.7,17.9c-387.9,104.6-775.9,668.7-1087.2,1590l-135.3,398.1l-99.5,12.8c-120,17.9-237.4,122.5-270.5,247.6c-30.6,112.3,5.1,270.5,74,339.4l51,51l122.5-94.4c66.3-51,142.9-99.5,173.5-107.2c28.1-5.1,724.8-7.7,1546.6-5.1l1495.6,7.7l125,107.2c68.9,58.7,137.8,107.2,155.7,109.7C7100.5,1871.3,7138.7,1840.7,7166.8,1804.9z"/><path d="M2034.3-716.6c-148-298.6-201.6-319-530.8-196.5l-191.4,74l-283.3-280.7l-285.8-280.7l74-201.6c119.9-331.8,104.6-380.3-196.5-528.3L406-2237.8V-2641v-403.3l206.7-99.6c196.5-97,275.6-173.5,278.2-273.1c0-17.9-30.6-127.6-68.9-245l-71.5-209.3l285.8-285.8l285.8-283.3l219.5,79.1c206.7,74,224.6,76.6,308.8,40.8c74-30.6,102.1-68.9,188.9-252.7l99.5-217h403.3H2948l107.2,217c145.5,296,188.9,313.9,500.2,209.3l224.6-76.6l280.7,283.3l283.3,280.7l-76.6,224.6c-104.6,311.4-86.8,354.8,209.3,500.3l216.9,107.2v405.8v403.2l-211.8,97c-173.6,81.7-216.9,114.9-252.7,188.9c-43.4,89.3-40.8,94.4,35.7,311.3l79.1,219.5l-283.3,285.9l-285.8,285.8l-209.3-71.4c-117.4-38.3-227.1-68.9-245-68.9c-99.5,2.6-176.1,81.7-273.1,278.2L2948-502.3h-403.3h-403.2L2034.3-716.6z M2792.3-1086.7c81.7-163.3,97-178.7,209.3-219.5c66.3-22.9,163.3-61.2,211.8-86.8c86.8-48.5,89.3-45.9,273.1,17.9l188.9,66.3l102.1-104.6l104.6-102.1l-68.9-193.9c-58.7-160.8-63.8-204.2-38.3-234.8c17.9-20.4,58.7-109.7,89.3-199c53.6-153.1,61.2-160.8,237.3-255.2l183.8-97V-2641v-148l-191.4-94.4c-130.2-63.8-191.4-109.8-191.4-137.8c0-25.5-35.7-120-76.6-209.3l-76.6-160.8l63.8-181.2l66.4-181.3l-104.6-102.1l-102.1-104.6l-191.4,66.3c-163.3,56.2-199.1,61.3-237.4,33.2c-23-17.9-114.9-58.7-204.2-89.3c-158.2-53.6-160.8-56.1-247.6-229.7l-89.3-176.1h-153.1h-153.1l-89.3,176.1c-81.7,163.3-97,178.7-209.3,219.5c-66.3,23-160.8,61.3-209.3,86.8c-86.8,45.9-89.3,45.9-242.5-12.8c-84.2-33.2-171-61.3-194-61.3c-23,0-81.7,43.4-135.3,97l-91.9,94.4l66.4,188.9c63.8,178.7,66.3,188.9,25.5,268c-25.5,43.4-63.8,137.8-91.9,206.7c-43.4,117.4-58.7,135.3-222.1,216.9l-176.1,89.3l-7.6,145.5l-7.7,148l191.4,94.5c163.3,79.1,194,107.2,209.3,173.5c10.2,40.8,45.9,135.3,81.7,206.7l63.8,132.7l-66.3,178.7l-66.4,176.1l112.3,109.7l112.3,109.8l178.7-66.3c181.2-66.4,181.2-66.4,262.9-20.4c45.9,28,142.9,68.9,214.4,91.9c127.6,40.9,135.3,48.5,209.3,219.5l79.1,176.1h153.1H2703L2792.3-1086.7z"/><path d="M2230.8-1643.1c-308.8-112.3-500.2-280.7-635.5-566.6c-74-155.7-79.1-188.8-79.1-436.4c0-247.6,5.1-280.7,81.7-439c104.6-224.6,288.4-408.4,513-513c158.2-76.6,191.4-81.7,439-81.7c247.6,0,280.7,5.1,439,81.7c237.4,112.3,385.4,255.2,500.2,487.5c91.9,186.3,94.4,204.2,94.4,461.9c0,250.2-5.1,283.3-81.7,441.6c-104.6,224.6-288.4,408.4-513,513c-145.5,66.3-206.7,81.6-400.7,86.8C2417.2-1599.7,2325.3-1609.9,2230.8-1643.1z M2759.2-2038.7c135.3-40.8,336.9-224.6,390.5-357.3c68.9-168.4,61.3-370.1-23-541.1c-227.1-464.5-862.7-490-1128.1-45.9c-178.7,293.5-107.2,645.7,173.6,855C2330.4-2010.6,2552.4-1977.4,2759.2-2038.7z"/><path d="M6097.5-1410.9c-158.2-158.2-359.8-288.4-546.2-347.1c-308.8-99.5-678.9-25.5-916.2,183.7c-53.6,46-99.5,79.1-104.6,74c-15.3-23-117.4-324.1-117.4-352.2c0-17.9,107.2-81.7,239.9-142.9c132.7-61.3,245-125.1,250.1-140.4c12.8-40.8,186.3-76.6,365-76.6c321.6,0,650.8,125.1,952,362.4l163.3,127.6l301.2-79.1c1026-262.9,1860.6-870.3,2248.5-1641.1c114.8-227.1,211.9-548.7,237.4-778.4l17.8-160.8H6653.8H4122l-150.6-145.5l-148-148l-237.4,84.2c-130.2,43.4-245,81.7-252.7,81.7c-15.3,0-145.5-237.3-145.5-268c0-7.6,1442-12.8,3203-12.8h3203v262.9c0,806.5-278.2,1452.2-890.7,2062.2c-428.8,426.2-954.5,742.7-1590,954.5c-237.3,79.1-791.2,217-872.9,217C6222.5-1293.5,6158.7-1347.1,6097.5-1410.9z"/></g></g>
</svg>